<?xml version="1.0" encoding="UTF-8" standalone="no"?><!DOCTYPE svg PUBLIC "-//W3C//DTD SVG 1.1//EN" "http://www.w3.org/Graphics/SVG/1.1/DTD/svg11.dtd"><svg width="100%" height="100%" viewBox="0 0 135 154" version="1.1" xmlns="http://www.w3.org/2000/svg" xmlns:xlink="http://www.w3.org/1999/xlink" xml:space="preserve" xmlns:serif="http://www.serif.com/" style="fill-rule:evenodd;clip-rule:evenodd;stroke-linejoin:round;stroke-miterlimit:1.41421;"><path id="Layer0_0_FILL" d="M68.6,0.3c-1.3,-0.4 -2.3,-0.4 -3.1,0l-64.3,40.2c-0.8,0.6 -1.2,1.4 -1.2,2.2l0,74.2l61.2,0c0.6,0 1.1,-0.2 1.5,-0.7c0.4,-0.4 0.6,-0.9 0.6,-1.5c0,-0.6 -0.2,-1 -0.6,-1.4c-0.4,-0.4 -0.9,-0.6 -1.5,-0.6l-7.5,0l0,-3.2l7.5,0c0.6,0 1.1,-0.2 1.5,-0.7c0.4,-0.4 0.6,-0.9 0.6,-1.5c0,-0.6 -0.2,-1 -0.6,-1.4c-0.4,-0.4 -0.9,-0.6 -1.5,-0.6l-7.5,0l0,-3.3l7.5,0c0.6,0 1.1,-0.2 1.5,-0.7c0.4,-0.4 0.6,-0.9 0.6,-1.5c0,-0.6 -0.2,-1 -0.6,-1.4c-0.4,-0.4 -0.9,-0.6 -1.5,-0.6l-7.5,0l0,-3.3l7.5,0c0.6,0 1.1,-0.2 1.5,-0.7c0.4,-0.4 0.6,-0.9 0.6,-1.5c0,-0.6 -0.2,-1 -0.6,-1.4c-0.4,-0.4 -0.9,-0.6 -1.5,-0.6l-34.6,0l0,-31.8c0,-1 0.5,-1.7 1.4,-2.2l37.7,-23.4c1,-0.6 1.9,-0.6 2.9,0l37.6,23.4c0.8,0.6 1.1,1.4 1.1,2.2l0,68.8l-105.3,0c-0.6,0 -1.1,0.2 -1.5,0.6c-0.3,0.4 -0.5,0.9 -0.5,1.5c0,0.6 0.2,1 0.5,1.5c0.4,0.4 0.9,0.6 1.5,0.6l7.5,0l0,3.2l-7.5,0c-0.6,0 -1.1,0.2 -1.5,0.6c-0.3,0.4 -0.5,0.9 -0.5,1.5c0,0.6 0.2,1 0.5,1.5c0.4,0.4 0.9,0.6 1.5,0.6l7.5,0l0,3.2l-7.5,0c-0.6,0 -1.1,0.2 -1.5,0.6c-0.3,0.4 -0.5,0.9 -0.5,1.5c0,0.6 0.2,1 0.5,1.5c0.4,0.4 0.9,0.6 1.5,0.6l7.5,0l0,3.2l-7.5,0c-0.6,0 -1.1,0.2 -1.5,0.6c-0.3,0.4 -0.5,0.9 -0.5,1.5c0,0.6 0.2,1 0.5,1.5c0.4,0.4 0.9,0.6 1.5,0.6l132.2,0l0,-110.9c0,-1.1 -0.4,-1.8 -1.3,-2.2l-64.3,-40.3Z" style="fill-rule:nonzero;"/></svg>